<svg xmlns="http://www.w3.org/2000/svg"  version="1.1" x="0px" y="0px" viewBox="0 0 100 125">
	<g transform="translate(0,-952.36218)">
		<path fill="white" d="m 86.411127,965.95098 c 0.3905,0.39054 0.3906,1.02368 1e-4,1.41424 l -8.485404,8.48524 c -0.3905,0.39057 -1.0236,0.39059 -1.4141,5e-5 -0.3906,-0.39056 -0.3906,-1.02372 -1e-4,-1.41423 l 8.485304,-8.48528 c 0.3905,-0.39057 1.0238,-0.39052 1.4142,-2e-5 z m 7.049,16.68325 c 0.181,0.18107 0.3093,0.43114 0.3094,0.70718 0,0.55226 -0.442,0.9943 -0.9944,0.99437 l -12.020804,10e-6 c -0.5523,-2e-5 -0.9945,-0.44225 -0.9943,-0.99433 10e-5,-0.55233 0.4421,-0.99438 0.9943,-0.99442 l 11.998704,-0.0221 c 0.2761,-4e-5 0.5262,0.12837 0.7071,0.30928 z M 69.727823,958.90204 c 0.181,0.18092 0.3093,0.43104 0.3095,0.70711 l -0.022,11.99865 c 1e-4,0.55228 -0.442,0.99432 -0.9943,0.99439 -0.5521,7e-5 -0.9944,-0.44211 -0.9943,-0.99434 l 0,-12.02081 c 0,-0.55233 0.4421,-0.99436 0.9943,-0.9944 0.2762,-10e-6 0.5261,0.12834 0.7071,0.30942 z m 18.097604,40.99009 c 0.3904,0.39047 0.3905,1.02367 0,1.41417 -0.3906,0.3906 -1.0237,0.3906 -1.4142,0 l -8.485304,-8.48524 c -0.3906,-0.39056 -0.3906,-1.02367 -1e-4,-1.41423 0.3905,-0.39056 1.0238,-0.3905 1.4142,-2e-5 z M 72.269023,984.33577 c 0.3702,0.37026 0.3701,1.0439 0,1.4142 l -60.104,60.10413 c -0.3703,0.3702 -1.044,0.3702 -1.4143,0 l -4.2426,-4.2426 c -0.3703,-0.3703 -0.3701,-1.0439 0,-1.4142 l 60.104,-60.10418 c 0.3703,-0.37015 1.044,-0.37018 1.4142,-10e-6 z m -11.3137,-11.3137 c 0.3906,0.39056 0.3906,1.02367 0,1.4142 -0.3906,0.3905 -1.0237,0.39053 -1.4142,0 l -8.4853,-8.48528 c -0.3906,-0.39057 -0.3906,-1.02367 0,-1.41421 0.3906,-0.39051 1.0237,-0.39053 1.4142,10e-6 z m 9.1924,12.0208 -2.8284,-2.82842 -12.0208,12.02082 2.8284,2.82842 z m 1.4142,10.916 c 0.1811,0.18095 0.2874,0.40894 0.2872,0.68495 l 0,12.02088 c 0,0.5522 -0.4421,0.9943 -0.9943,0.9943 -0.5522,10e-5 -0.9944,-0.442 -0.9944,-0.9943 l 0,-12.02088 c 0,-0.55223 0.4421,-0.99427 0.9944,-0.99433 0.2761,-4e-5 0.526,0.12831 0.7071,0.30941 z m -15.1586,-15.15866 c 0.181,0.18103 0.3094,0.43106 0.3094,0.70715 -10e-5,0.55232 -0.4421,0.99436 -0.9945,0.99434 l -12.0207,3e-5 c -0.5523,-3e-5 -0.9945,-0.44225 -0.9944,-0.99436 0,-0.55224 0.4421,-0.99437 0.9945,-0.99434 l 12.0208,-2e-5 c 0.2761,-3e-5 0.504,0.10629 0.6848,0.28724 z" style="text-indent:0;text-transform:none;direction:ltr;block-progression:tb;baseline-shift:baseline;color:#000000;enable-background:accumulate;" fill-opacity="1" stroke="none" marker="none" visibility="visible" display="inline" overflow="visible" />
	</g>
</svg>
